# xmcd
#
# Track frame offsets:
# 150
# 13159
# 24150
# 35520
# 44612
# 56867
# 65652
# 77504
# 90412
# 101108
# 113324
# 125348
# 135214
# 144709
# 156918
# 168662
# 178805
# 189788
# 200539
# 210567
# 221174
# 231655
# 241999
# 251077
# 260706
# 271388
# 281507
# 292824
# 302801
# 312296
# 321800
# 331549
# 342443
#
# Disc length: 4733 seconds
#
#
# Revision: 2
# Processed by: cddbd v1.5.1PL2 Copyright (c) Steve Scherf et al.
# Submitted via: FreeRIP 2.944 
#
DISCID=e8127b21
DTITLE=Various Artist - Bear Family - "Perfect for Parties" (BSt.)
DYEAR=2006
DGENRE=Country
TTITLE0=Johnny Lee Wills and his Boys - The Band's A Rockin'
TTITLE1=Charlie Adams - Cattin' Around
TTITLE2=Billy Barnett - Romp And Stomp
TTITLE3=Hank Locklin - Foreign Car
TTITLE4=Larry Nolen and the Bandits - Hillbilly Love Afair
TTITLE5=Terry Fell - Caveman
TTITLE6=Rod Morris - Alabama Jail House
TTITLE7=Kenny Roberts - Choo Choo Ch'Boogie
TTITLE8=Pee Wee King - I Don't Mind
TTITLE9=Buck Griffin - It Don't Make No Never Mind
TTITLE10=Curley Williams - Just A-Pickin' And A Singin'
TTITLE11=Charline Arthur - Burn That Candle
TTITLE12=Jimmy Dolan - Juke Box Boogie
TTITLE13=Jimmy Heap - Ethyl In My Gas Tank
TTITLE14=Brad Brady and his Tenneseans - Zeb's Mountain Boogie (instr.)
TTITLE15=Sheb Wooly - Honey I'm Lonesome
TTITLE16=Tommy Duncan - Nancy Jane
TTITLE17=Merl Lindsay - Stealin' Sugar
TTITLE18=Lew Williams - Don't Mention My Name
TTITLE19=Jimmy Swan - Country Cattin'
TTITLE20=Jumpin' Bill Carlisle - Rattlesnake Daddy
TTITLE21=Gene O'Quin - Boogie Woogie Fever
TTITLE22=Dub Dickerson - Shotgun Wedding
TTITLE23=Little Jimmy Dickens - Stinky Passed The Hat Around
TTITLE24=Bob Wills - Jolie Blond Likes The Boogie
TTITLE25=Jess Willard/ Boogie Woogie Preachin' Man
TTITLE26=Bob Gallion - Trademark On What I've Found
TTITLE27=Jimmy Spellman/ (She Wants A) Lover Man
TTITLE28=Roy Hogsed - Snake Dance Boogie
TTITLE29=Roy Aldridge - It's Not Easy To Forget
TTITLE30=Merrill Moore - King Porter Stomp
TTITLE31=Peace River Rangers - Teen Age Boogie (ft. Bob Regan)
TTITLE32=Betty Cody - Pale Moon
EXTD=YEAR: 2006
EXTT0=
EXTT1=
EXTT2=
EXTT3=
EXTT4=
EXTT5=
EXTT6=
EXTT7=
EXTT8=
EXTT9=
EXTT10=
EXTT11=
EXTT12=
EXTT13=
EXTT14=
EXTT15=
EXTT16=
EXTT17=
EXTT18=
EXTT19=
EXTT20=
EXTT21=
EXTT22=
EXTT23=
EXTT24=
EXTT25=
EXTT26=
EXTT27=
EXTT28=
EXTT29=
EXTT30=
EXTT31=
EXTT32=
PLAYORDER=
